<svg width="0" height="0" class="hidden">
  <symbol fill="none" xmlns="http://www.w3.org/2000/svg" viewBox="0 0 61 80" id="card3">
    <path d="M34.1472 22.5409L34.1439 22.5863C34.062 23.6975 33.6999 24.6367 33.0458 25.2981C32.3848 25.9664 31.4859 26.2895 30.4594 26.2729M34.1472 22.5409L27.4488 22.5897L26.8489 22.5759C26.8242 23.647 27.1892 24.5742 27.8548 25.2372C28.5172 25.8971 29.4379 26.2565 30.4594 26.2729M34.1472 22.5409L34.1437 22.4955M34.1472 22.5409L34.1437 22.4955M30.4594 26.2729L30.4692 25.673L30.4595 26.2729C30.4595 26.2729 30.4595 26.2729 30.4594 26.2729ZM34.1437 22.4955C34.068 21.5264 33.7614 20.6549 33.1386 20.02C32.5083 19.3777 31.6251 19.0497 30.5451 19.0381L34.1437 22.4955ZM16.9215 68.2368C16.524 66.759 17.4097 65.2314 18.8876 64.8347L18.8881 64.8346L18.8914 64.8337M16.9215 68.2368L18.8914 64.8337M16.9215 68.2368L16.9691 68.4148L16.9693 68.4157C17.3669 69.8939 18.9009 70.7747 20.3802 70.3798L20.3807 70.3797L20.2255 69.8001C20.2255 69.8001 41.2841 64.1603 41.5601 64.0823L41.7193 64.6608C41.7197 64.6607 41.72 64.6606 41.7204 64.6605C42.7975 64.364 43.6691 63.8211 44.2759 63.0431C44.8829 62.265 45.1914 61.2945 45.216 60.2007C45.278 57.4479 46.4681 55.2977 48.4698 53.423L48.4699 53.423C49.5903 52.3736 50.7167 51.3047 51.784 50.1771L51.7841 50.177C60.6701 40.784 62.1334 26.5365 55.3808 15.4204L54.268 13.5886V13.7239C47.2309 3.76358 34.597 -0.915558 22.8045 2.51825L22.9723 3.09433L22.8045 2.51826C11.9525 5.67843 4.83856 12.8504 2.2608 23.8545C-0.291913 34.7513 2.90224 44.141 10.9137 51.961C12.724 53.7281 14.3698 55.8516 15.3717 58.0939L15.3717 58.0939L15.3729 58.0967C15.6298 58.6714 15.8581 59.1823 16.0921 59.5983C16.3274 60.0165 16.5958 60.3906 16.9587 60.6621C17.7258 61.2358 18.6928 61.1963 19.9815 60.8855C21.7566 60.4574 23.5184 59.9808 25.271 59.5063L25.3097 59.4958C27.0519 59.0241 28.785 58.5549 30.5283 58.1328C31.5158 57.8937 32.2865 57.4773 32.7948 56.7932C33.2993 56.1142 33.4792 55.2597 33.4728 54.2818C33.4244 46.9454 33.4407 39.6078 33.4675 32.2684V32.2683C33.4706 31.3928 33.3379 30.4981 32.8921 29.8002C32.4184 29.0587 31.6437 28.6202 30.5697 28.5954C29.4922 28.5704 28.6908 28.9624 28.1944 29.6946C27.7293 30.3808 27.5915 31.2813 27.5995 32.1745M16.9215 68.2368L37.0574 59.9662M18.8914 64.8337L18.8981 64.8318L18.9375 64.8208L19.091 64.778L19.6732 64.6157C20.1746 64.4761 20.8905 64.277 21.7486 64.0389C23.4647 63.5629 25.7498 62.9311 28.0253 62.3083C30.3003 61.6856 32.5677 61.0714 34.2476 60.6308C35.0866 60.4108 35.7834 60.2329 36.2622 60.1188C36.4994 60.0623 36.6933 60.019 36.8268 59.9944C36.8854 59.9836 36.9638 59.9702 37.0343 59.9669C37.0407 59.9666 37.0485 59.9663 37.0574 59.9662M18.8914 64.8337L37.0574 59.9662M37.0574 59.9662C37.7696 59.7777 38.2885 59.5085 38.6714 59.1423C39.0708 58.7602 39.3673 58.2292 39.5496 57.4534C40.4567 53.5923 42.972 50.7484 45.6214 48.19C49.9154 44.0438 52.7791 39.2548 53.5512 33.2699C54.7086 24.2973 50.3369 15.0269 42.3272 10.5343C37.9744 8.09313 33.6441 6.96825 29.4067 7.15898C25.1705 7.34965 20.9865 8.85702 16.9277 11.7446L16.9277 11.7446C5.69982 19.732 4.04529 35.151 13.055 45.5992C14.8011 47.624 16.5652 49.6308 18.418 51.7386C19.2251 52.6567 20.049 53.5939 20.8955 54.5601C22.6319 54.3068 23.9112 54.1135 24.8755 53.8645C25.8964 53.6008 26.4609 53.2983 26.8134 52.8897C27.1661 52.4807 27.3837 51.8761 27.4972 50.8242C27.611 49.7703 27.6118 48.3733 27.6119 46.4456C27.612 45.0692 27.6145 43.6939 27.617 42.3191C27.6232 38.9356 27.6294 35.5558 27.5995 32.1745M27.5995 32.1745L28.1995 32.1692M27.5995 32.1745C27.5995 32.1745 27.5995 32.1746 27.5995 32.1746L28.1995 32.1692M28.1995 32.1692C28.1843 30.4754 28.7402 29.1532 30.5558 29.1952C32.3494 29.2367 32.8733 30.6047 32.8675 32.2662L42.6207 10.011C33.7533 5.03778 24.8592 5.36553 16.5798 11.2557C5.05552 19.454 3.36695 35.2831 12.6006 45.991C14.3485 48.018 16.1157 50.0283 17.9696 52.1372C18.8445 53.1325 19.7386 54.1496 20.6592 55.2009C28.2117 54.101 28.2117 54.101 28.2119 46.4461V46.4456C28.212 45.0716 28.2145 43.6976 28.217 42.3236C28.2232 38.9387 28.2294 35.5539 28.1995 32.1692ZM24.769 78.5042L24.769 78.5042L41.4011 74.0626L41.2463 73.4829L41.4011 74.0626C42.9047 73.661 43.8071 72.1078 43.4027 70.6047C42.9988 69.1024 41.44 68.2078 39.9369 68.609L39.9369 68.6091L23.3049 73.0507C21.801 73.4521 20.8993 75.0057 21.3032 76.5084L21.3032 76.5084C21.7071 78.0106 23.2659 78.9055 24.769 78.5042Z" fill="#4859F0" stroke="#4859F0" stroke-width="1.2"></path>
  </symbol>
  <symbol fill="none" xmlns="http://www.w3.org/2000/svg" viewBox="0 0 86 82" id="card2">
    <path d="M74.1053 35.1579C74.1053 26.8943 70.8226 18.9692 64.9793 13.1259C59.1361 7.2827 51.211 4 42.9474 4C34.6838 4 26.7586 7.2827 20.9154 13.1259C15.0722 18.9692 11.7895 26.8943 11.7895 35.1579" stroke="#4859F0" stroke-width="6.5" stroke-linecap="round" stroke-linejoin="round"></path>
    <path d="M74.1053 62.4211V64.3684C74.1053 66.4343 73.2846 68.4156 71.8238 69.8764C70.363 71.3372 68.3817 72.1579 66.3158 72.1579H52.6842M4 52.4427V45.1362C4.00026 43.3992 4.58111 41.7121 5.65022 40.3431C6.71933 38.9741 8.21536 38.0016 9.90053 37.5804L16.6774 35.8823C17.0217 35.7966 17.3811 35.7903 17.7282 35.8642C18.0753 35.938 18.4011 36.0899 18.6807 36.3084C18.9604 36.5268 19.1866 36.8061 19.3422 37.1251C19.4979 37.444 19.5788 37.7942 19.5789 38.1491V59.426C19.5796 59.7816 19.499 60.1327 19.3434 60.4525C19.1878 60.7723 18.9613 61.0523 18.6811 61.2713C18.4009 61.4903 18.0744 61.6424 17.7265 61.7161C17.3785 61.7898 17.0184 61.7832 16.6735 61.6966L9.89663 60.0024C8.21218 59.5805 6.71704 58.6077 5.64868 57.2388C4.58033 55.8698 4.00005 54.1831 4 52.4466V52.4427ZM81.8947 52.4427V45.1362C81.8945 43.3992 81.3136 41.7121 80.2445 40.3431C79.1754 38.9741 77.6794 38.0016 75.9942 37.5804L69.2174 35.8823C68.873 35.7966 68.5136 35.7903 68.1665 35.8642C67.8194 35.938 67.4937 36.0899 67.214 36.3084C66.9344 36.5268 66.7081 36.8061 66.5525 37.1251C66.3969 37.444 66.3159 37.7942 66.3158 38.1491V59.426C66.3153 59.7812 66.3958 60.1318 66.5512 60.4513C66.7066 60.7707 66.9327 61.0505 67.2125 61.2694C67.4922 61.4883 67.8182 61.6405 68.1656 61.7146C68.513 61.7886 68.8727 61.7825 69.2174 61.6966L75.9942 60.0024C77.6794 59.5812 79.1754 58.6088 80.2445 57.2398C81.3136 55.8707 81.8945 54.1837 81.8947 52.4466V52.4427Z" stroke="#4859F0" stroke-width="6.5"></path>
    <path d="M48.7895 78H37.1053C35.5558 78 34.0699 77.3845 32.9743 76.2889C31.8787 75.1933 31.2632 73.7073 31.2632 72.1579C31.2632 70.6085 31.8787 69.1225 32.9743 68.0269C34.0699 66.9313 35.5558 66.3158 37.1053 66.3158H48.7895C50.3389 66.3158 51.8249 66.9313 52.9205 68.0269C54.0161 69.1225 54.6316 70.6085 54.6316 72.1579C54.6316 73.7073 54.0161 75.1933 52.9205 76.2889C51.8249 77.3845 50.3389 78 48.7895 78Z" stroke="#4859F0" stroke-width="6.5"></path>
  </symbol>
  <symbol fill="none" xmlns="http://www.w3.org/2000/svg" viewBox="0 0 77 74" id="card1">
    <path d="M43.1199 61.6H55.4399V73.92H43.1199V61.6ZM64.6799 61.6H76.9999V73.92H64.6799V61.6ZM43.1199 40.04H55.4399V52.36H43.1199V40.04ZM64.6799 40.04H76.9999V52.36H64.6799V40.04Z" fill="#4859F0"></path>
    <path d="M77 21.56H58.52V9.24C58.52 4.004 54.516 0 49.28 0H30.8C25.564 0 21.56 4.004 21.56 9.24V21.56H3.08C1.232 21.56 0 22.792 0 24.64V25.256L5.852 62.524C6.16 65.604 8.932 67.76 12.012 67.76H36.96V61.6H12.012L6.776 27.72H77V21.56ZM27.72 9.24C27.72 7.392 28.952 6.16 30.8 6.16H49.28C51.128 6.16 52.36 7.392 52.36 9.24V21.56H27.72V9.24Z" fill="#4859F0"></path>
  </symbol>
  <symbol fill="none" xmlns="http://www.w3.org/2000/svg" viewBox="0 0 30 30" id="doc">
    <path d="M25.9167 10.3571H17.5833V2.07143H5.08333V26.9286H25.9167V10.3571ZM25.0542 8.28572L19.6667 2.929V8.28572H25.0542ZM4.04167 0H19.6667L28 8.28572V27.9643C28 28.239 27.8903 28.5024 27.6949 28.6966C27.4996 28.8909 27.2346 29 26.9583 29H4.04167C3.7654 29 3.50045 28.8909 3.3051 28.6966C3.10975 28.5024 3 28.239 3 27.9643V1.03571C3 0.761026 3.10975 0.497588 3.3051 0.303354C3.50045 0.10912 3.7654 0 4.04167 0ZM9.25 14.5H21.75V16.5714H9.25V14.5ZM9.25 8.28572H14.4583V10.3571H9.25V8.28572ZM9.25 20.7143H21.75V22.7857H9.25V20.7143Z" fill="#9B9591"></path>
  </symbol>
  <symbol fill="none" xmlns="http://www.w3.org/2000/svg" viewBox="0 0 30 30" id="user">
    <circle cx="15" cy="15" r="14" stroke="#9B9591" stroke-width="2"></circle>
    <path d="M20 13C20 14.404 19.4228 15.9356 18.4667 17.1119C17.5099 18.289 16.271 19 15 19C13.729 19 12.4901 18.289 11.5333 17.1119C10.5772 15.9356 10 14.404 10 13C10 11.4737 10.3479 10.2466 11.0694 9.41089C11.7673 8.60266 12.9549 8 15 8C17.0451 8 18.2327 8.60266 18.9306 9.41089C19.6521 10.2466 20 11.4737 20 13Z" stroke="#9B9591" stroke-width="2"></path>
    <path d="M7 26C7 26 9.31456 21 15 21C20.6854 21 23 26 23 26" stroke="#9B9591" stroke-width="2"></path>
  </symbol>
  <symbol fill="none" xmlns="http://www.w3.org/2000/svg" viewBox="0 0 18 27" id="order">
    <path d="M7.6429 26.9846C7.52392 27.0051 7.402 27.0051 7.28301 26.9846C7.02333 26.9102 6.79636 26.7573 6.63665 26.5491C6.47694 26.341 6.39324 26.089 6.39827 25.8316V25.675L7.74787 16.6362H1.23981C1.02034 16.6364 0.805025 16.5795 0.617299 16.4715C0.429574 16.3636 0.276634 16.2089 0.17513 16.0242C0.0604538 15.8386 0 15.6273 0 15.4121C0 15.1969 0.0604538 14.9856 0.17513 14.8L3.17424 9.83224L9.3224 0.551472C9.45903 0.332492 9.66987 0.163983 9.92047 0.0734885C10.1711 -0.0170061 10.4466 -0.0241338 10.702 0.0532708C10.9617 0.127681 11.1886 0.280586 11.3484 0.488716C11.5081 0.696846 11.5918 0.948805 11.5867 1.20625V1.36283L10.2371 10.4016H16.7602C16.9797 10.4014 17.195 10.4584 17.3827 10.5663C17.5704 10.6742 17.7234 10.829 17.8249 11.0137C17.9395 11.1993 18 11.4106 18 11.6258C18 11.8409 17.9395 12.0522 17.8249 12.2378L14.8258 17.2056L8.6776 26.4864C8.56461 26.6467 8.4101 26.7767 8.2289 26.8639C8.0477 26.9512 7.8459 26.9927 7.6429 26.9846ZM2.90432 14.4442H8.90253C9.06795 14.446 9.23136 14.4788 9.38344 14.5406C9.53551 14.6024 9.67327 14.692 9.78885 14.8044C9.90443 14.9168 9.99556 15.0496 10.057 15.1954C10.1185 15.3412 10.1491 15.497 10.1472 15.6541V15.8106L9.26242 21.7037L13.0113 16.0099L15.1707 12.4798H9.17245C9.00703 12.478 8.84361 12.4452 8.69154 12.3834C8.53946 12.3216 8.4017 12.2319 8.28613 12.1196C8.17055 12.0072 8.07942 11.8744 8.01794 11.7286C7.95646 11.5828 7.92584 11.4269 7.92782 11.2699V11.1133L8.81256 5.22032L5.06367 10.914L2.90432 14.4442Z" fill="#9B9591"></path>
  </symbol>
  <symbol fill="none" xmlns="http://www.w3.org/2000/svg" viewBox="0 0 30 30" id="cart">
    <path d="M9.42268 27.8877C10.1117 27.8877 10.6702 27.3292 10.6702 26.6402C10.6702 25.9512 10.1117 25.3927 9.42268 25.3927C8.7337 25.3927 8.17517 25.9512 8.17517 26.6402C8.17517 27.3292 8.7337 27.8877 9.42268 27.8877Z" stroke="#9B9591" stroke-width="2.5" stroke-linecap="round" stroke-linejoin="round"></path>
    <path d="M23.1452 27.8877C23.8342 27.8877 24.3927 27.3292 24.3927 26.6402C24.3927 25.9512 23.8342 25.3927 23.1452 25.3927C22.4562 25.3927 21.8977 25.9512 21.8977 26.6402C21.8977 27.3292 22.4562 27.8877 23.1452 27.8877Z" stroke="#9B9591" stroke-width="2.5" stroke-linecap="round" stroke-linejoin="round"></path>
    <path d="M2 3H4.49501L7.81337 18.494C7.9351 19.0615 8.25084 19.5687 8.70623 19.9285C9.16162 20.2882 9.72818 20.478 10.3084 20.4651H22.509C23.0768 20.4642 23.6273 20.2696 24.0696 19.9135C24.5119 19.5574 24.8195 19.061 24.9416 18.5065L27 9.23752H5.82984" stroke="#9B9591" stroke-width="2.5" stroke-linecap="round" stroke-linejoin="round"></path>
  </symbol>
  <symbol fill="none" xmlns="http://www.w3.org/2000/svg" viewBox="0 0 31 30" id="search">
    <rect x="21.354" y="20" width="11.8561" height="2" rx="1" transform="rotate(42.6122 21.354 20)" fill="#9B9591"></rect>
    <circle cx="12.5" cy="12.5" r="11.5" stroke="#9B9591" stroke-width="2"></circle>
  </symbol>
  <symbol fill="inherit" xmlns="http://www.w3.org/2000/svg" viewBox="0 0 25 25" id="phone">
    <path d="M9.99472 14.0413C11.4686 15.5681 13.2519 16.7469 15.2195 17.4949L17.8813 15.3319C17.9602 15.2764 18.0538 15.2467 18.1496 15.2467C18.2454 15.2467 18.339 15.2764 18.4179 15.3319L23.3603 18.5836C23.5479 18.6987 23.7067 18.8569 23.8242 19.0456C23.9417 19.2342 24.0146 19.4482 24.0372 19.6705C24.0598 19.8929 24.0315 20.1176 23.9544 20.3268C23.8774 20.5361 23.7537 20.7242 23.5933 20.8763L21.2774 23.2123C20.9458 23.5469 20.5381 23.7925 20.0909 23.9271C19.6437 24.0617 19.1708 24.0812 18.7145 23.9837C14.162 23.0236 9.96586 20.775 6.60567 17.4949C3.32004 14.1821 1.04641 9.96694 0.0605691 5.36067C-0.0368193 4.90186 -0.016493 4.42514 0.119578 3.97672C0.255649 3.52829 0.502851 3.12336 0.837226 2.80117L3.2378 0.436332C3.38635 0.280446 3.56752 0.160898 3.76773 0.0866382C3.96794 0.0123787 4.182 -0.0146673 4.3939 0.00752523C4.60579 0.0297178 4.81003 0.100574 4.99131 0.214788C5.17259 0.329002 5.32621 0.483614 5.44068 0.667048L8.73088 5.64906C8.78763 5.72729 8.81827 5.82207 8.81827 5.91943C8.81827 6.01679 8.78763 6.11157 8.73088 6.1898L6.5633 8.85024C7.31566 10.8192 8.48781 12.5925 9.99472 14.0413Z"></path>
  </symbol>
</svg>